<?xml version="1.0" encoding="UTF-8" standalone="no"?>
<!-- OpenAPI Generator logo by OpenAPI Tools -->

<svg
   id="svg"
   version="1.1"
   width="400"
   height="400"
   viewBox="0 0 400 400"
   xmlns="http://www.w3.org/2000/svg"
   xmlns:xlink="http://www.w3.org/1999/xlink"
   xmlns:sodipodi="http://sodipodi.sourceforge.net/DTD/sodipodi-0.dtd"
   sodipodi:docname="logo_openapi-generator.svg">
  <g
     id="svgg">
    <path
       id="path0"
       d=""
       stroke="none"
       fill="#000000"
       fill-rule="evenodd" />
    <path
       id="path1"
       d="M347.400 0.287 C 318.301 4.335,300.725 35.518,311.858 63.344 L 313.286 66.914 265.300 114.900 L 217.314 162.886 213.744 161.458 C 180.334 148.091,145.672 175.280,150.774 210.853 C 153.557 230.257,169.743 246.443,189.147 249.226 C 224.720 254.328,251.909 219.666,238.542 186.256 L 237.114 182.686 285.100 134.700 L 333.086 86.714 336.665 88.146 C 367.270 100.391,400.000 78.554,400.000 45.890 C 400.000 17.569,375.549 -3.629,347.400 0.287"
       stroke="none"
       fill="#434143"
       fill-rule="evenodd" />
    <path
       id="path2"
       d="M98.699 106.701 L 66.400 139.002 66.400 198.200 L 66.400 257.398 33.101 290.699 L -0.199 324.001 37.900 362.100 L 75.999 400.199 109.301 366.899 L 142.602 333.600 201.802 333.600 L 261.002 333.600 293.301 301.299 L 325.600 268.998 325.600 203.995 L 325.600 138.991 318.897 132.297 L 312.194 125.603 290.226 147.574 L 268.257 169.546 269.312 172.073 C 290.036 221.695,258.934 276.227,206.063 282.970 C 154.702 289.522,110.478 245.298,117.030 193.937 C 123.775 141.052,178.292 109.959,227.927 130.688 L 230.454 131.743 252.426 109.774 L 274.397 87.806 267.703 81.103 L 261.009 74.400 196.003 74.400 L 130.998 74.400 98.699 106.701"
       stroke="none"
       fill="#9fc550"
       fill-rule="evenodd" />
    <path
       id="path3"
       d=""
       stroke="none"
       fill="#55ff55"
       fill-rule="evenodd" />
    <path
       id="path4"
       d="M32.999 290.500 L -0.200 323.800 33.100 290.601 C 64.057 259.738,66.579 257.200,66.299 257.200 C 66.244 257.200,51.259 272.185,32.999 290.500 M109.399 366.900 L 76.200 400.200 109.500 367.001 C 140.457 336.138,142.979 333.600,142.699 333.600 C 142.644 333.600,127.659 348.585,109.399 366.900"
       stroke="none"
       fill="#ffff00"
       fill-rule="evenodd" />
  </g>
</svg>